<?xml version="1.0" encoding="UTF-8"?>
<svg id="_レイヤー_2" data-name="レイヤー 2" xmlns="http://www.w3.org/2000/svg" viewBox="0 0 297.7 231.92">
  <defs>
    <style>
      .cls-1, .cls-2, .cls-3 {
        stroke-width: 0px;
      }

      .cls-2 {
        fill: none;
      }

      .cls-3 {
        fill: #f29600;
      }
    </style>
  </defs>
  <g id="_レイヤー_1-2" data-name="レイヤー 1">
    <g>
      <g>
        <path class="cls-2" d="m253.69,187.45h0s-.11-.02-.28-.02c-4.16,0-13.2,10.28-13.2,13.96,0,.02,0,.04,0,.06,1.79-.63,8.27-6.42,11.46-10.05,1.37-1.56,2.06-2.56,2.06-3.64,0-.19-.02-.27-.04-.3Z"/>
        <path class="cls-2" d="m210.27,185.73c-1.54.27-6.02,3.84-8.72,7.83,7.65-5.11,8.6-7.29,8.72-7.83Z"/>
        <path class="cls-2" d="m228.68,200.95c1.04,0,2.31-3.06,3.43-5.77-1.79,1.82-3.59,3.54-5.3,4.98.75.51,1.41.8,1.87.8Z"/>
        <path class="cls-2" d="m260.99,226.52c0,2.11,1.23,2.11,1.63,2.11,3.06,0,9.65-10.29,15.64-19.81-10.76,2.73-17.27,12.72-17.27,17.7Z"/>
        <path class="cls-1" d="m177.31,182.99c0,1.3.83,2.17,2.06,2.17,1.48,0,2.27-1.31,2.27-2.53,0-1.39-1.01-2.11-2.01-2.11-1.51,0-2.32,1.28-2.32,2.48Z"/>
        <path class="cls-1" d="m200.34,185.82c0-1.01-.93-2.16-1.74-2.16-.68,0-.89.6-.96.79-.08.23-.24.7-.86,1.67-2.88,4.47-10.94,13.37-13.31,13.97h0c0-1.86,2.41-6.01,4.66-9.08.61-.83,1.07-1.39,1.4-1.79.58-.7.9-1.08.9-1.67,0-.83-.94-2.02-1.81-2.02-.81,0-2.02,1-3.49,2.88-.36.46-.76,1.03-1.17,1.64-.1.11-.17.18-.29.3-5.34,5.68-10.19,9.65-11.78,9.65-.09,0-.25,0-.25-.53,0-1.58,2.52-5.73,4.61-8.12,1.86-2.15,2.07-2.75,2.07-3.52,0-1.21-.85-2.09-2.02-2.09-.82,0-2.26,1.37-3.7,3.34-.33.31-.71.7-1.24,1.26-5.91,6.22-10.5,9.93-12.33,9.95-.01-.02-.05-.13-.05-.34,0-1.45,1.92-4.64,4.89-8.12.78-.9,1.38-1.43,1.83-1.81.59-.52,1.06-.92,1.06-1.64,0-1.45-1.91-2.09-2.64-2.09-1.31,0-5.69,3.56-9.56,6.97,1.08-1.7,1.8-3.3,1.8-4.74,0-1.95-1.65-3.61-3.6-3.61-2.12,0-5.15,2.29-7.04,4.32-.3.29-.64.65-1.08,1.11-5.91,6.22-10.5,9.93-12.33,9.95-.01-.02-.05-.13-.05-.34,0-1.45,1.92-4.64,4.89-8.12.78-.9,1.38-1.43,1.83-1.81.59-.52,1.06-.92,1.06-1.64,0-1.45-1.91-2.09-2.64-2.09-1.31,0-5.69,3.56-9.56,6.97,1.08-1.7,1.8-3.3,1.8-4.74,0-1.95-1.65-3.61-3.6-3.61-3.28,0-8.77,5.49-8.77,6.98,0,.89.72,1.68,1.54,1.68.62,0,1.11-.52,2.18-1.66,1.29-1.38,3.46-3.7,5.22-3.7h.01s.07.13.07.38c0,.97-1.33,2.8-3.35,5.56-1.11,1.53-2.46,3.38-4.02,5.67-1.19,1.79-1.59,2.65-1.59,3.43,0,1.01.93,2.23,2.09,2.23.83,0,1.54-.83,2.2-1.69l.07-.1c2.75-2.97,5.54-5.57,7.84-7.5-.51,1.11-.84,2.24-.84,3.27,0,2.49,1.76,4.36,4.09,4.36,3.04,0,9.32-5.99,14.05-11.02.04-.05.06-.07.1-.11.22-.22.46-.48.75-.79,1.29-1.38,3.46-3.7,5.22-3.7h.01s.07.13.07.38c0,.97-1.33,2.8-3.35,5.56-1.11,1.53-2.46,3.38-4.02,5.67-1.19,1.79-1.59,2.65-1.59,3.43,0,1.01.93,2.23,2.09,2.23.83,0,1.54-.83,2.2-1.69l.07-.1c2.75-2.97,5.54-5.57,7.84-7.5-.51,1.11-.84,2.24-.84,3.27,0,2.49,1.76,4.36,4.09,4.36,1.97,0,5.31-2.53,8.71-5.68-.12.59-.2,1.15-.2,1.67,0,2.4,1.42,4.02,3.53,4.02s5.18-2.27,8.42-5.18c-.06.35-.11.71-.11,1.02,0,2.29,1.46,4.16,3.26,4.16,3.49,0,10.11-7.58,13.75-12.1,3.08-3.83,3.49-5.13,3.49-5.9Z"/>
        <path class="cls-1" d="m241.49,186.36c.61-.67,1.06-1.15,1.06-1.92,0-1.02-1.19-1.81-2.22-1.81-.71,0-1.24.48-1.77,1.01-.72.72-1.25,1.33-1.77,1.92-.48.54-.94,1.07-1.53,1.66l-.17.17c-.53.52-.91.92-1.18,1.28-.39.32-.91.83-1.7,1.68-2.81,3.06-6.17,6.25-8.84,8.18-.28.1-.48.26-.65.44-1.24.83-2.32,1.37-3.03,1.37l-.18-.18c0-1.44,2.58-4.32,4.28-6.24,1.9-2.13,2.74-3.11,2.74-3.96,0-1.3-.51-2.85-2.92-2.85-.29,0-.77.05-1.31.12-.07,0-.14.02-.21.02.5-.74.86-1.31.86-1.98,0-1-.85-1.88-1.81-1.88-2.08,0-4.57,3.48-4.57,5.67,0,.23.07.42.11.62-.2.2-.38.39-.62.65-8.09,8.43-10.95,9.93-14.95,9.93-1.25,0-1.56-.31-1.56-1.56v-.19c9.51-5.3,14.32-9.71,14.32-13.1,0-1.99-1.31-3.33-3.26-3.33-5,0-14.9,10.19-14.9,16.76,0,3.21,1.84,4.98,5.19,4.98,6.39,0,11.43-4.77,17.36-11.02l.32-.34c.31-.33.57-.62.8-.9.01,0,.02,0,.04,0,.35,0,.69-.03,1.03-.06-3.17,3.57-4.77,6.38-4.77,8.37,0,2.36,1.78,3.95,4.43,3.95,1.02,0,2.28-.55,3.64-1.4,1.07,1.2,2.66,2.29,4.48,2.29,3.97,0,5.33-2.95,6.42-5.32.18-.39.42-1,.71-1.76.96-2.47,2.58-6.62,4.64-9.45.62-.85,1.13-1.4,1.52-1.82Zm-31.22-.62c-.11.54-1.07,2.72-8.72,7.83,2.7-3.99,7.18-7.56,8.72-7.83Zm18.42,15.21c-.46,0-1.12-.29-1.87-.8,1.71-1.43,3.51-3.16,5.3-4.98-1.12,2.71-2.39,5.77-3.43,5.77Z"/>
        <path class="cls-1" d="m295.83,189.96c1.61-1.82,1.87-2.36,1.87-3.18,0-.92-.74-1.95-1.81-1.95-.92,0-1.78.91-4.45,4.25-5.03,6.29-10.83,10.23-12.67,10.47.12-2.41,4.02-7.2,5.32-8.79.4-.5.73-.86.99-1.15.56-.62.92-1.02.92-1.66,0-.43-.12-.66-.27-.95l-.12-.23c-.24-.42-.6-1.05-1.36-1.05-.48,0-1.31.24-3,2.31-.54.66-1.08,1.33-1.62,2.02-.1.11-.17.17-.28.29-4.42,4.81-10.23,9.99-12.53,9.99l-.18-.18c0-1.44,2.58-4.32,4.28-6.24,1.9-2.13,2.74-3.11,2.74-3.96,0-1.3-.51-2.85-2.92-2.85-.29,0-.77.05-1.31.12-.07,0-.14.02-.21.02.5-.74.86-1.31.86-1.98,0-1-.85-1.88-1.81-1.88-2.08,0-4.57,3.48-4.57,5.67,0,.23.07.42.11.62-.2.21-.37.38-.63.65-2.72,2.84-8.4,8.76-10.54,8.76-.2,0-.25,0-.25-.32,0-1.06,1.5-3.94,3.72-6.54.34-.4.64-.73.9-1.01.81-.89,1.3-1.43,1.3-2.16,0-.79-.58-1.37-1.31-1.7-.02-2.2-1.37-3.56-3.53-3.56-6.54,0-17.1,11.6-17.1,17.24,0,2.49,1.83,4.22,3.47,4.22,1.77,0,3.99-1.77,8.53-6.01.12,2.56,1.88,3.74,3.53,3.74,4.26,0,13.43-10.1,13.51-10.2l.42-.46c.27-.3.49-.55.69-.78.02,0,.03,0,.04,0,.35,0,.69-.03,1.03-.06-3.17,3.57-4.77,6.38-4.77,8.37,0,2.36,1.78,3.95,4.43,3.95,2.01,0,4.85-1.97,7.9-4.68,0,.01,0,.03,0,.04,0,2.36,1.58,3.95,3.05,3.95,1.14,0,2.98-.9,4.86-2.12l-2.26,3.71c-14.22,1.67-23.62,13.99-23.62,21.53,0,3.55,2.15,5.67,5.74,5.67,5.86,0,12.95-11.52,20.45-23.83h.83c2.12,0,2.84.25,3.33.41.29.1.6.2,1.01.2.86,0,1.47-.58,1.47-1.4,0-.94-1.24-2.36-4.45-2.7.62-.99,1.17-1.89,1.69-2.75,2.62-4.28,4.36-7.1,8.61-11.89Zm-44.17,1.43c-3.19,3.63-9.67,9.43-11.46,10.05,0-.02,0-.04,0-.06,0-3.68,9.04-13.96,13.2-13.96.17,0,.26.02.28.02h0s.04.11.04.3c0,1.09-.69,2.08-2.06,3.64Zm10.96,37.24c-.4,0-1.63,0-1.63-2.11,0-4.98,6.51-14.97,17.27-17.7-5.99,9.52-12.58,19.81-15.64,19.81Z"/>
        <path class="cls-2" d="m111.72,189.11h0c-.65-.17-1.45-.28-2.35-.35.9.08,1.69.18,2.35.35Z"/>
        <path class="cls-2" d="m111.5,185.18h0c-1,1.19-2,2.35-3.02,3.5.33.02.6.05.9.08.9.08,1.69.18,2.35.35.49-1.31,1.04-2.68,1.65-4.1.61-1.43,1.29-2.91,2.02-4.47-.9,1.07-1.81,2.15-2.72,3.24l-1.19,1.41Z"/>
        <path class="cls-1" d="m124.01,171.05c.8-1.42,1.47-2.61,2-3.7.08-.16.1-.34.07-.51-.17-1.01-.97-2.12-2.12-2.21-.31-.02-.63.14-.8.42-2.09,3.57-8.59,11.56-14.1,17.89l-.61.7c-1.55,1.76-3.03,3.45-4.5,5.06-3.55.11-8.58.51-11.27,1.03-1.04.17-2.62.44-2.62,1.72,0,.98,1.01,1.57,1.98,1.57.4,0,1.13-.09,2.24-.23,1.56-.2,3.76-.48,6.33-.67-5.63,5.59-10.36,8.83-14.87,10.19-.23.07-.46.14-.69.2-.55.14-1.11.25-1.66.34-.24.04-.48.07-.72.1-6.44.81-11.11-2.16-11.63-1.04-.86,1.73,4.87,4.57,9.53,4.57,3.32,0,6.49-.88,9.49-2.29,5.94-2.8,11.18-7.72,15.46-12.27h.04c2.51,0,4.06.17,4.99.33-1.51,4.61-2.28,8.37-2.28,11.21,0,.97,1.08,2.35,2.09,2.35.66,0,1.37-.51,1.37-1.93,0-7.05,4.35-17.23,6.94-22.66,2.18-4.6,3.93-7.69,5.33-10.18Zm-10.64,13.96c-.61,1.43-1.16,2.79-1.65,4.1h0c-.65-.17-1.45-.28-2.35-.35-.3-.03-.56-.06-.9-.08,1.02-1.15,2.02-2.31,3.02-3.49h0s1.19-1.41,1.19-1.41c.91-1.08,1.82-2.16,2.72-3.24-.74,1.56-1.41,3.04-2.02,4.47Z"/>
        <path class="cls-1" d="m111.5,185.19c-1,1.19-2,2.34-3.02,3.49.33.02.6.05.9.08-.3-.03-.56-.06-.9-.08,1.02-1.15,2.02-2.31,3.02-3.49Z"/>
        <path class="cls-1" d="m111.72,189.11c.49-1.31,1.04-2.68,1.65-4.1-.61,1.43-1.16,2.79-1.65,4.1h0Z"/>
      </g>
      <g>
        <path class="cls-1" d="m242.05,23.26c1.7,0,3.95-1.42,5.11-4.33,1.22-3.09,2.73-3.56,4.32-3.64,1.51-.08,12.92.75,15.34.75,2.42,0,4.39-1.96,4.39-4.39s-1.96-4.39-4.39-4.39-13.62.72-15.34.75c-1.59.03-3.1-.55-4.32-3.64-1.15-2.91-3.4-4.33-5.11-4.33h-2.32s0,23.2,0,23.2h2.32Z"/>
        <path class="cls-3" d="m222.72,17.55v3c0,.84.36,1.64,1,2.2.63.56,1.47.81,2.31.7l12.01-1.58V1.6L226.02.02c-.83-.11-1.68.15-2.31.7-.63.56-1,1.36-.99,2.2v10.67c0,.4.28.76.67.85l4.44,1.08-4.45,1.17c-.39.1-.65.45-.65.85Z"/>
        <polygon class="cls-1" points="230.52 165.08 237.94 165.08 237.94 139.9 243.71 139.9 243.71 132.98 237.94 132.98 237.94 121.21 230.52 121.21 230.52 132.98 227.36 132.98 227.36 139.9 230.52 139.9 230.52 165.08"/>
        <path class="cls-1" d="m258.86,149.56c0-3.96.52-6.75,1.55-8.37,1.05-1.6,2.88-2.41,5.47-2.41,2.02,0,3.49.58,4.4,1.73.91,1.15,1.37,3.02,1.37,5.59v18.99h7.42v-19.68c0-4.48-.92-7.75-2.77-9.79-2.18-2.35-5.08-3.53-8.7-3.53-3.19,0-6.1,1.19-8.74,3.56v-26.24h-7.42v55.68h7.42v-15.53Z"/>
        <path class="cls-3" d="m180.75,129.72c-5.18,5.18-12.11,8.65-19.85,9.46-1.1.1-2.23.16-3.37.16-1.04,0-2.04-.06-3.01-.16-.32-.03-.62-.06-.91-.1-.71-.1-1.46-.19-2.17-.32-.26-.06-.52-.1-.78-.16h-.06c-5.05-1.49-9.94-4.05-14.74-7.55-5.18-4.24-9.49-8.06-13.02-11.46-4.08-4.18-8.16-8.81-12.31-13.67-.92-1.07-1.83-2.17-2.75-3.27l-20.83,14.65c18.47,22.67,30.9,32.51,35.59,35.81.71.49,1.43.94,2.11,1.39h.03c.75.52,1.52,1,2.3,1.49,3.08,1.85,6.22,3.47,9.52,4.86.84.32,1.68.65,2.53.94.19.1.39.16.58.23,5.28,1.75,10.91,2.82,16.78,2.98.58.03,1.17.1,1.78.1,32.39,0,58.65-26.26,58.65-58.68s-25.33-57.65-56.9-58.59c-.58,0-1.17-.1-1.75-.1-1.1,0-2.14.13-3.21.16l7.42-24.94h50.07V.02h-67.13l-16.68,55.74-4.44,14.83-4.44,14.86h12.21l.81-.55c3.27-3.72,7.32-6.74,11.95-8.71.61-.26,1.26-.45,1.91-.68,1.39-.49,2.78-.94,4.27-1.23,2.14-.42,4.34-.65,6.61-.65,1.13,0,2.27.03,3.37.16,7.74.78,14.67,4.24,19.85,9.46,1.49,1.49,2.85,3.11,4.02,4.86,3.56,5.25,5.64,11.56,5.64,18.36s-2.07,13.15-5.64,18.4c-1.17,1.75-2.53,3.37-4.02,4.86Z"/>
        <path class="cls-1" d="m87.35,132.04c-.48,3.5-1.56,6.8-3.1,9.83h0c-1.77,3.54-4.63,7.2-7.9,9.92-5.73,4.97-12.48,7.48-20.27,7.48-8.84,0-16.32-3.05-22.43-9.17-6.11-6.11-9.17-13.52-9.17-22.22s3.06-16.1,9.17-22.22c6.11-6.11,13.55-9.17,22.32-9.17.17,0,.33.02.49.02,8.49.12,15.77,3.19,21.83,9.25,1.39,1.39,2.56,2.88,3.62,4.42l20.78-14.62c-10.16-14.5-26.95-24.01-46-24.01-.34,0-.67.05-1.01.05L108.3.06h-28.57L16.28,86.16C5.43,100.9,0,114.85,0,128.01c0,9.37,2.3,17.92,6.85,25.68,9.37,18,28.16,30.3,49.85,30.3s39.94-11.92,49.45-29.47h0s0,0,0,0c0,0,0-.01.01-.02h0c.53-.98,1.05-1.96,1.53-2.97-4.35-3.44-11.25-9.53-20.34-19.49Z"/>
      </g>
    </g>
  </g>
</svg>